# xmcd CD database file
#
# Track frame offsets:
#	150
#	29840
#	53248
#	78066
#	103626
#	139468
#	168403
#	196054
#	215534
#
# Disc length: 3261 seconds
#
# Revision: 0
# Processed by: cddbd v1.5.2PL0 Copyright (c) Steve Scherf et al.
# Submitted via: CDex 1.51
#
DISCID=7c0cbb09
DTITLE=Larry McDonough Quartet - Simple Gifts
DYEAR=2008
DGENRE=Jazz
TTITLE0=Ode to Joy
TTITLE1=Tuscarora
TTITLE2=Dame la Mano
TTITLE3=They Can`t Take That Away from Me
TTITLE4=Aja
TTITLE5=Lady Day
TTITLE6=Simple Gifts
TTITLE7=Elie`s Theme
TTITLE8=My Favorite Things
EXTD=YEAR: 2008
EXTT0=
EXTT1=
EXTT2=
EXTT3=
EXTT4=
EXTT5=
EXTT6=
EXTT7=
EXTT8=
PLAYORDER=
